<svg xmlns="http://www.w3.org/2000/svg" viewBox="0 0 64 64">
  <defs>
    <radialGradient id="b" cx="0.38" cy="0.32" r="0.8">
      <stop offset="0%" stop-color="#FFF0A8"/>
      <stop offset="45%" stop-color="#FFC93C"/>
      <stop offset="100%" stop-color="#E87B04"/>
    </radialGradient>
  </defs>
  <circle cx="32" cy="32" r="30" fill="#0c3f56"/>
  <g stroke="#8F3F04" stroke-width="2.4" stroke-linejoin="round">
    <!-- tail -->
    <path d="M40,32 C47,26 53,19 57,16 C60,14 62,18 60,23 C58,28 52,31 46,32
             C52,33 58,36 60,41 C62,46 60,50 57,48 C53,45 47,38 40,32 Z" fill="#F79A11"/>
    <!-- dorsal fin -->
    <path d="M24,20 C27,12 34,9 39,11 C41,12 41,15 39,17 C36,19 34,21 33,23 Z" fill="#F79A11"/>
    <!-- body -->
    <ellipse cx="27" cy="33" rx="16" ry="13" fill="url(#b)"/>
    <!-- eye -->
    <circle cx="20" cy="29" r="4.6" fill="#fff" stroke="none"/>
    <circle cx="19" cy="30" r="2.6" fill="#2B1400" stroke="none"/>
  </g>
</svg>
